<svg width="1285" height="1095" viewBox="0 0 1285 1095" fill="none" xmlns="http://www.w3.org/2000/svg">
<path d="M164.443 318.799C167.482 314.824 170.851 306.558 175.237 304.021C195.647 292.211 224.193 282.093 246.136 272.465C268.612 262.561 290.826 252.073 312.756 241.012C389.036 202.438 462.973 159.396 534.182 112.111C561.767 94.0625 588.809 75.1995 615.274 55.5465C625.649 47.7265 642.169 35.9406 651.589 27.3106C710.419 -26.5884 756.809 10.1396 817.359 44.6996L929.379 108.71L1040.82 172.261C1060.73 183.62 1081.27 195.165 1100.79 207.215C1106.95 211.018 1112.88 218.399 1117.4 223.98C1125.01 234.258 1127.62 237.538 1132.82 249.031C1143.67 274.95 1153.78 303.938 1163.95 330.418L1224.82 488.299L1263.36 587.568C1270.11 604.818 1277.24 622.278 1283.51 639.708C1287.81 651.658 1281.29 659.058 1271.54 665.378C1248.48 680.338 1225.03 694.988 1201.57 709.438L1103.93 770.078L1041.64 809.308C1036.42 812.558 1019.93 823.268 1015.11 825.548C1009.92 829.078 1004.66 832.488 999.319 835.768C988.899 841.408 974.339 851.128 964.059 857.568L898.149 898.818L689.959 1028.79L627.539 1067.7C614.364 1075.91 599.977 1085.73 585.918 1091.93C572.73 1097.74 555.348 1093.71 543.514 1086.52C514.562 1068.93 485.983 1050.82 457.242 1032.92L289.668 928.768L100.741 812.358C85.7882 803.128 11.4802 759.668 3.58617 749.728C-0.641827 743.518 -0.860829 740.428 1.52117 733.318C7.23217 716.268 14.0822 699.568 20.6082 682.808L48.3452 610.308L151.67 339.671C155.705 330.058 157.408 326.411 164.443 318.799Z" fill="url(#paint0_linear_37_178)"/>
<path d="M164.443 318.799C167.482 314.824 170.851 306.558 175.237 304.021C195.647 292.211 224.193 282.092 246.136 272.464C268.612 262.56 290.826 252.072 312.756 241.011C389.036 202.437 462.973 159.395 534.182 112.11C561.767 94.0625 588.809 75.1995 615.274 55.5465C625.649 47.7265 642.169 35.9405 651.589 27.3105C710.419 -26.5884 756.809 10.1396 817.359 44.6996L929.379 108.709L1040.82 172.261C1060.73 183.62 1081.27 195.164 1100.79 207.214C1106.95 211.017 1112.88 218.398 1117.4 223.979C1117.12 228.214 1116.49 235.398 1114.55 239.094C1107.03 253.37 1085.85 271.157 1073.5 281.692C1036.62 313.176 993.759 344.207 953.119 370.77C945.819 375.293 924.099 388.566 918.299 393.182C894.129 406.516 870.089 422.631 845.169 436.465C833.689 442.817 822.119 449.007 810.459 455.031C805.729 457.492 794.789 462.779 791.179 465.321C786.119 466.733 751.319 484.851 742.629 488.798C700.909 507.77 659.029 525.768 615.323 539.718C592.288 547.028 560.576 550.817 537.067 542.727C505.885 532.007 472.691 509.991 443.766 493.411L298.162 409.291C271.83 394.005 242.849 376.319 216.211 362.19C211.188 358.743 203.355 354.089 197.968 351.403C189.678 345.546 178.224 340.479 172.72 331.406C170.302 327.42 169.062 322.868 166.539 318.859L164.443 318.799Z" fill="#3C83F5"/>
<path d="M642.119 216.433C642.319 215.984 643.009 214.251 643.369 214.005C683.169 187.048 749.849 168.534 794.029 195.321C796.879 197.047 799.249 200.685 799.689 203.832C806.339 218.952 803.129 220.932 796.099 234.049C784.859 258.568 718.839 259.657 709.269 237.217C699.159 226.181 698.669 222.484 701.489 207.908C691.479 210.854 678.789 215.754 671.879 223.648C644.739 254.649 699.409 281.089 719.009 293.275C751.589 313.526 779.549 332.643 819.419 328.157C847.839 324.96 876.979 308.148 883.049 278.513C884.509 271.22 883.319 264.07 882.479 256.826C885.739 255.61 896.389 251.337 899.089 254.807C902.999 259.824 905.439 273.338 905.069 279.382C901.029 346.236 806.299 373.78 751.519 371.833C703.729 369.866 654.979 357.757 621.589 323.553C594.666 295.977 596.929 258.373 623.469 232.286C628.709 227.071 635.579 222.684 640.969 217.54L642.119 216.433Z" fill="#D9DADB"/>
<path d="M642.119 216.433C642.319 215.984 643.009 214.251 643.369 214.005C683.169 187.048 749.849 168.534 794.029 195.321C796.879 197.047 799.249 200.685 799.689 203.832C796.049 200.744 788.479 194.18 784.349 192.489C768.629 186.046 749.179 184.239 732.609 185.823C697.169 189.213 672.189 199.147 642.119 216.433Z" fill="#D9DADB"/>
<path d="M709.269 237.216C736.089 256.643 770.369 253.72 796.099 234.048C784.859 258.567 718.839 259.656 709.269 237.216Z" fill="#3C83F5"/>
<path d="M552.899 279.892C553.991 279.974 555.284 280.191 556.273 280.661C562.533 283.636 659.879 420.401 669.919 436.282C671.969 439.518 673.819 442.701 674.749 446.442C670.689 452.344 627.349 473.418 619.059 476.943C593.477 469.713 564.628 459.519 538.974 451.191L390.489 402.937C382.848 400.543 355.51 393.249 351.934 387.846L352.892 385.916C362.535 379.26 420.66 349.119 426.047 350.847C483.988 369.434 577.532 398.64 632.269 418.214C602.662 373.804 568.675 331.557 538.753 287.662C543.636 283.96 547.113 281.769 552.899 279.892Z" fill="#D9DADB"/>
<path d="M705.889 71.1272L705.869 69.3682C730.499 49.0572 796.499 56.0102 794.769 97.0122C794.349 107.193 785.859 111.898 779.919 118.078C765.689 132.865 704.579 134.814 698.069 113.238C696.829 109.676 689.729 102.197 690.469 92.1092C691.039 84.3222 700.589 76.0632 705.889 71.1272Z" fill="#D9DADB"/>
<path d="M705.889 71.1272L705.869 69.3682C730.499 49.0572 796.499 56.0102 794.769 97.0122C794.349 107.193 785.859 111.898 779.919 118.078C765.689 132.865 704.579 134.814 698.069 113.238C718.199 127.707 738.669 130.408 762.639 123.429C777.099 119.218 798.499 104.247 791.259 86.7532C781.659 63.5502 747.479 57.7432 725.499 63.3972C719.099 65.0492 711.909 68.6942 705.889 71.1272Z" fill="#3C83F5"/>
<path d="M825.189 113.231C833.089 108.326 834.299 107.634 843.229 110.005C843.429 110.288 843.599 110.592 843.829 110.856C853.609 122.293 876.779 123.347 876.899 142.847C876.979 155.101 856.989 181.162 847.679 189.776C845.539 191.749 843.569 193.096 840.499 192.983C829.619 192.584 777.819 160.125 767.319 151.874C779.349 141.836 810.619 122.697 825.189 113.231Z" fill="#D9DADB"/>
<path d="M904.529 150.98C906.219 150.985 909.889 151.085 911.279 151.868C950.459 173.989 989.369 196.814 1028.16 219.634C1031.39 221.535 1031.54 222.037 1032.33 225.478C1029.18 230.85 996.149 251.562 988.709 256.477C970.349 269.312 966.299 272.198 947.179 258.126C928.249 244.2 885.959 226.159 871.309 210.026C866.899 196.641 894.469 156.176 904.529 150.98Z" fill="#D9DADB"/>
<path d="M1117.4 223.979C1125.01 234.257 1127.62 237.538 1132.82 249.031C1128.63 267.486 1116.54 274.874 1103.5 287.13C1063.79 324.466 1017.97 354.813 972.109 383.968C925.989 412.624 876.239 442.962 828.489 469.002C770.489 501.137 711.589 532.297 649.279 555.327C633.739 561.077 614.63 568.057 598.556 571.077C580.778 574.417 562.534 574.438 544.748 571.138L535.811 569.587C534.127 568.547 516.791 564.237 510.639 560.867C483.684 546.097 457.001 530.468 430.412 515.107L245.386 408.521C224.109 396.401 192.931 376.382 172.202 366.268C161.704 358.348 153.924 353.271 151.67 339.671C155.705 330.058 157.408 326.411 164.443 318.799L166.539 318.859C169.062 322.868 170.302 327.42 172.72 331.406C178.224 340.479 189.678 345.546 197.968 351.403C203.355 354.089 211.188 358.743 216.211 362.19C242.849 376.319 271.83 394.005 298.162 409.291L443.766 493.411C472.691 509.991 505.885 532.007 537.067 542.727C560.576 550.817 592.288 547.028 615.323 539.718C659.029 525.768 700.909 507.771 742.629 488.799C751.319 484.852 786.119 466.733 791.179 465.321C794.789 462.779 805.729 457.492 810.459 455.031C822.119 449.007 833.689 442.818 845.169 436.466C870.089 422.632 894.129 406.516 918.299 393.182C924.099 388.566 945.819 375.294 953.119 370.771C993.759 344.208 1036.62 313.176 1073.5 281.692C1085.85 271.157 1107.03 253.37 1114.55 239.094C1116.49 235.398 1117.12 228.214 1117.4 223.979Z" fill="#D9DADB"/>
<path d="M791.179 465.322C794.789 462.78 805.729 457.493 810.459 455.032C822.119 449.008 833.689 442.818 845.169 436.466C870.089 422.632 894.129 406.516 918.299 393.182C912.499 404.049 803.549 466.169 791.179 465.322Z" fill="#D9DADB"/>
<path d="M170.223 418.254C184.928 424.419 208.717 437.744 223.477 445.491C254.319 461.547 285.032 477.849 315.614 494.395C255.682 478.587 219.023 487.623 167.56 521.543C135.513 543.077 114.218 568.567 90.6682 598.347C99.1552 577.527 110.868 553.167 120.139 532.297L170.223 418.254Z" fill="#D9DADB"/>
<defs>
<linearGradient id="paint0_linear_37_178" x1="0.119141" y1="704.877" x2="1285.12" y2="664.877" gradientUnits="userSpaceOnUse">
<stop stop-color="#3570CC"/>
<stop offset="0.444342" stop-color="#174A98"/>
<stop offset="1" stop-color="#3570CC"/>
</linearGradient>
</defs>
</svg>
