<svg width="226" height="28" viewBox="0 0 226 28" fill="none" xmlns="http://www.w3.org/2000/svg">
<path d="M216.185 28C214.185 28 212.42 27.6282 210.889 26.8846C209.358 26.141 208.161 25.0769 207.296 23.6923C206.432 22.3077 206 20.641 206 18.6923V17.6154H210.815V18.6923C210.815 20.3077 211.296 21.5256 212.259 22.3462C213.222 23.141 214.531 23.5385 216.185 23.5385C217.864 23.5385 219.111 23.1923 219.926 22.5C220.765 21.8077 221.185 20.9231 221.185 19.8462C221.185 19.1026 220.975 18.5 220.556 18.0385C220.16 17.5769 219.568 17.2051 218.778 16.9231C218.012 16.6154 217.074 16.3333 215.963 16.0769L215.111 15.8846C213.333 15.4744 211.802 14.9615 210.519 14.3462C209.259 13.7051 208.284 12.8718 207.593 11.8462C206.926 10.8205 206.593 9.48718 206.593 7.84615C206.593 6.20513 206.963 4.80769 207.704 3.65385C208.469 2.47436 209.531 1.57692 210.889 0.96154C212.272 0.320513 213.889 0 215.741 0C217.593 0 219.235 0.333334 220.667 1C222.123 1.64103 223.259 2.61538 224.074 3.92308C224.914 5.20513 225.333 6.82051 225.333 8.76923V9.92308H220.519V8.76923C220.519 7.74359 220.321 6.92308 219.926 6.30769C219.556 5.66667 219.012 5.20513 218.296 4.92308C217.58 4.61538 216.728 4.46154 215.741 4.46154C214.259 4.46154 213.161 4.75641 212.444 5.34615C211.753 5.91026 211.407 6.69231 211.407 7.69231C211.407 8.35897 211.568 8.92308 211.889 9.38461C212.235 9.84615 212.741 10.2308 213.407 10.5385C214.074 10.8462 214.926 11.1154 215.963 11.3462L216.815 11.5385C218.667 11.9487 220.272 12.4744 221.63 13.1154C223.012 13.7564 224.086 14.6026 224.852 15.6538C225.617 16.7051 226 18.0513 226 19.6923C226 21.3333 225.593 22.7821 224.778 24.0385C223.988 25.2692 222.852 26.2436 221.37 26.9615C219.914 27.6538 218.185 28 216.185 28Z" fill="#FF2000"/>
<path d="M192.822 28C191.526 28 190.365 27.771 189.338 27.313C188.311 26.8295 187.492 26.1425 186.88 25.2519C186.293 24.3359 186 23.229 186 21.9313C186 20.6336 186.293 19.5522 186.88 18.687C187.492 17.7964 188.323 17.1349 189.375 16.7023C190.45 16.2443 191.673 16.0153 193.042 16.0153H198.031V14.9466C198.031 14.056 197.762 13.3308 197.224 12.771C196.686 12.1858 195.83 11.8931 194.656 11.8931C193.507 11.8931 192.651 12.173 192.089 12.7328C191.526 13.2672 191.16 13.9669 190.988 14.8321L186.734 13.3435C187.027 12.3766 187.492 11.4987 188.127 10.7099C188.788 9.89568 189.656 9.24682 190.732 8.76336C191.832 8.25445 193.165 8 194.73 8C197.126 8 199.021 8.62341 200.415 9.87023C201.809 11.117 202.506 12.9237 202.506 15.2901V22.3511C202.506 23.1145 202.848 23.4962 203.533 23.4962H205V27.4656H201.919C201.014 27.4656 200.268 27.2366 199.681 26.7786C199.095 26.3206 198.801 25.7099 198.801 24.9466V24.9084H198.104C198.006 25.2137 197.786 25.6209 197.444 26.1298C197.102 26.6132 196.564 27.0458 195.83 27.4275C195.097 27.8092 194.094 28 192.822 28ZM193.629 24.1069C194.925 24.1069 195.977 23.7379 196.784 23C197.615 22.2366 198.031 21.2316 198.031 19.9847V19.6031H193.373C192.517 19.6031 191.844 19.7939 191.355 20.1756C190.866 20.5573 190.622 21.0916 190.622 21.7786C190.622 22.4656 190.878 23.0254 191.392 23.458C191.905 23.8906 192.651 24.1069 193.629 24.1069Z" fill="#FF2000"/>
<path d="M171.181 28C169.817 28 168.595 27.771 167.514 27.313C166.432 26.8295 165.57 26.1425 164.927 25.2519C164.309 24.3359 164 23.229 164 21.9313C164 20.6336 164.309 19.5522 164.927 18.687C165.57 17.7964 166.445 17.1349 167.552 16.7023C168.685 16.2443 169.972 16.0153 171.413 16.0153H176.664V14.9466C176.664 14.056 176.381 13.3308 175.815 12.771C175.248 12.1858 174.347 11.8931 173.112 11.8931C171.902 11.8931 171.001 12.173 170.409 12.7328C169.817 13.2672 169.431 13.9669 169.251 14.8321L164.772 13.3435C165.081 12.3766 165.57 11.4987 166.239 10.7099C166.934 9.89568 167.848 9.24682 168.981 8.76336C170.139 8.25445 171.542 8 173.189 8C175.712 8 177.707 8.62341 179.174 9.87023C180.641 11.117 181.375 12.9237 181.375 15.2901V22.3511C181.375 23.1145 181.735 23.4962 182.456 23.4962H184V27.4656H180.757C179.804 27.4656 179.019 27.2366 178.402 26.7786C177.784 26.3206 177.475 25.7099 177.475 24.9466V24.9084H176.741C176.638 25.2137 176.407 25.6209 176.046 26.1298C175.686 26.6132 175.12 27.0458 174.347 27.4275C173.575 27.8092 172.52 28 171.181 28ZM172.031 24.1069C173.395 24.1069 174.502 23.7379 175.351 23C176.227 22.2366 176.664 21.2316 176.664 19.9847V19.6031H171.761C170.86 19.6031 170.152 19.7939 169.637 20.1756C169.122 20.5573 168.865 21.0916 168.865 21.7786C168.865 22.4656 169.135 23.0254 169.676 23.458C170.216 23.8906 171.001 24.1069 172.031 24.1069Z" fill="#FF2000"/>
<path d="M151.694 28C149.594 28 147.741 27.6282 146.133 26.8846C144.526 26.141 143.269 25.0769 142.361 23.6923C141.454 22.3077 141 20.641 141 18.6923V17.6154H146.056V18.6923C146.056 20.3077 146.561 21.5256 147.572 22.3462C148.583 23.141 149.957 23.5385 151.694 23.5385C153.457 23.5385 154.767 23.1923 155.622 22.5C156.504 21.8077 156.944 20.9231 156.944 19.8462C156.944 19.1026 156.724 18.5 156.283 18.0385C155.869 17.5769 155.246 17.2051 154.417 16.9231C153.613 16.6154 152.628 16.3333 151.461 16.0769L150.567 15.8846C148.7 15.4744 147.093 14.9615 145.744 14.3462C144.422 13.7051 143.398 12.8718 142.672 11.8462C141.972 10.8205 141.622 9.48718 141.622 7.84615C141.622 6.20513 142.011 4.80769 142.789 3.65385C143.593 2.47436 144.707 1.57692 146.133 0.96154C147.585 0.320513 149.283 0 151.228 0C153.172 0 154.896 0.333334 156.4 1C157.93 1.64103 159.122 2.61538 159.978 3.92308C160.859 5.20513 161.3 6.82051 161.3 8.76923V9.92308H156.244V8.76923C156.244 7.74359 156.037 6.92308 155.622 6.30769C155.233 5.66667 154.663 5.20513 153.911 4.92308C153.159 4.61538 152.265 4.46154 151.228 4.46154C149.672 4.46154 148.519 4.75641 147.767 5.34615C147.041 5.91026 146.678 6.69231 146.678 7.69231C146.678 8.35897 146.846 8.92308 147.183 9.38461C147.546 9.84615 148.078 10.2308 148.778 10.5385C149.478 10.8462 150.372 11.1154 151.461 11.3462L152.356 11.5385C154.3 11.9487 155.985 12.4744 157.411 13.1154C158.863 13.7564 159.991 14.6026 160.794 15.6538C161.598 16.7051 162 18.0513 162 19.6923C162 21.3333 161.572 22.7821 160.717 24.0385C159.887 25.2692 158.694 26.2436 157.139 26.9615C155.609 27.6538 153.794 28 151.694 28Z" fill="#FF2000"/>
<path d="M128.5 28C126.697 28 125.078 27.6183 123.64 26.855C122.203 26.0916 121.071 24.9847 120.242 23.5344C119.414 22.084 119 20.341 119 18.3053V17.6947C119 15.659 119.414 13.916 120.242 12.4657C121.071 11.0153 122.203 9.9084 123.64 9.14504C125.078 8.38168 126.697 8 128.5 8C130.303 8 131.922 8.38168 133.36 9.14504C134.797 9.9084 135.929 11.0153 136.758 12.4657C137.586 13.916 138 15.659 138 17.6947V18.3053C138 20.341 137.586 22.084 136.758 23.5344C135.929 24.9847 134.797 26.0916 133.36 26.855C131.922 27.6183 130.303 28 128.5 28ZM128.5 23.7252C129.913 23.7252 131.082 23.2545 132.008 22.313C132.933 21.3461 133.396 19.972 133.396 18.1908V17.8092C133.396 16.028 132.933 14.6667 132.008 13.7252C131.106 12.7583 129.937 12.2748 128.5 12.2748C127.087 12.2748 125.918 12.7583 124.992 13.7252C124.067 14.6667 123.604 16.028 123.604 17.8092V18.1908C123.604 19.972 124.067 21.3461 124.992 22.313C125.918 23.2545 127.087 23.7252 128.5 23.7252Z" fill="white"/>
<path d="M108.933 28V4.8H101V0H122V4.8H114.067V28H108.933Z" fill="white"/>
<path d="M84 28V0H88.9875V10.6H89.7C89.9111 10.1733 90.241 9.74667 90.6896 9.32C91.1382 8.89333 91.7319 8.54667 92.4708 8.28C93.2361 7.98667 94.1993 7.84 95.3604 7.84C96.891 7.84 98.2236 8.2 99.3583 8.92C100.519 9.61333 101.417 10.5867 102.05 11.84C102.683 13.0667 103 14.5067 103 16.16V28H98.0125V16.56C98.0125 15.0667 97.6431 13.9467 96.9042 13.2C96.1917 12.4533 95.1625 12.08 93.8167 12.08C92.2861 12.08 91.0986 12.6 90.2542 13.64C89.4097 14.6533 88.9875 16.08 88.9875 17.92V28H84Z" fill="white"/>
<path d="M75.0933 28C73.8238 28 72.7876 27.6154 71.9845 26.8462C71.2073 26.0513 70.8186 25 70.8186 23.6923V12.9231H66V8.92308H70.8186V3H75.715V8.92308H81V12.9231H75.715V22.8462C75.715 23.6154 76.0777 24 76.8031 24H80.5337V28H75.0933Z" fill="white"/>
<path d="M53.8224 28C52.5264 28 51.3649 27.771 50.3378 27.313C49.3108 26.8295 48.4916 26.1425 47.8803 25.2519C47.2934 24.3359 47 23.229 47 21.9313C47 20.6336 47.2934 19.5522 47.8803 18.687C48.4916 17.7964 49.323 17.1349 50.3745 16.7023C51.4504 16.2443 52.6731 16.0153 54.0425 16.0153H59.0309V14.9466C59.0309 14.056 58.7619 13.3308 58.2239 12.771C57.686 12.1858 56.8301 11.8931 55.6564 11.8931C54.5071 11.8931 53.6512 12.173 53.0888 12.7328C52.5264 13.2672 52.1596 13.9669 51.9884 14.8321L47.7336 13.3435C48.027 12.3766 48.4916 11.4987 49.1274 10.7099C49.7876 9.89568 50.6557 9.24682 51.7317 8.76336C52.832 8.25445 54.1647 8 55.7297 8C58.1261 8 60.0212 8.62341 61.4151 9.87023C62.8089 11.117 63.5058 12.9237 63.5058 15.2901V22.3511C63.5058 23.1145 63.8481 23.4962 64.5328 23.4962H66V27.4656H62.9189C62.0142 27.4656 61.2683 27.2366 60.6815 26.7786C60.0946 26.3206 59.8012 25.7099 59.8012 24.9466V24.9084H59.1042C59.0064 25.2137 58.7864 25.6209 58.444 26.1298C58.1017 26.6132 57.5637 27.0458 56.8301 27.4275C56.0965 27.8092 55.0939 28 53.8224 28ZM54.6293 24.1069C55.9254 24.1069 56.9768 23.7379 57.7838 23C58.6152 22.2366 59.0309 21.2316 59.0309 19.9847V19.6031H54.3726C53.5167 19.6031 52.8443 19.7939 52.3552 20.1756C51.8662 20.5573 51.6216 21.0916 51.6216 21.7786C51.6216 22.4656 51.8784 23.0254 52.3919 23.458C52.9054 23.8906 53.6512 24.1069 54.6293 24.1069Z" fill="white"/>
<path d="M34.7137 28C32.7969 28 31.1002 27.6056 29.6237 26.8168C28.1731 26.0025 27.0334 24.8702 26.2045 23.4198C25.4015 21.944 25 20.2137 25 18.229V17.771C25 15.7863 25.4015 14.0687 26.2045 12.6183C27.0075 11.1425 28.1343 10.0102 29.5849 9.22138C31.0354 8.40713 32.7192 8 34.636 8C36.5269 8 38.1718 8.41985 39.5706 9.25954C40.9693 10.0738 42.0573 11.2188 42.8344 12.6947C43.6115 14.145 44 15.8372 44 17.771V19.4122H29.9734C30.0252 20.7099 30.5174 21.7659 31.4499 22.5802C32.3824 23.3944 33.5222 23.8015 34.8691 23.8015C36.242 23.8015 37.2522 23.5089 37.8998 22.9237C38.5474 22.3384 39.0395 21.6896 39.3763 20.9771L43.3783 23.0382C43.0157 23.6997 42.4847 24.4249 41.7853 25.2137C41.1118 25.9771 40.2052 26.6387 39.0654 27.1985C37.9257 27.7328 36.4751 28 34.7137 28ZM30.0123 15.8244H39.0266C38.923 14.7303 38.4697 13.8524 37.6667 13.1908C36.8896 12.5293 35.8664 12.1985 34.5971 12.1985C33.2761 12.1985 32.227 12.5293 31.4499 13.1908C30.6728 13.8524 30.1936 14.7303 30.0123 15.8244Z" fill="white"/>
<path d="M0 28V23.36H3.51389V4.64H0V0H11C14.5903 0 17.3148 0.96 19.1736 2.88C21.0579 4.77333 22 7.6 22 11.36V16.64C22 20.4 21.0579 23.24 19.1736 25.16C17.3148 27.0533 14.5903 28 11 28H0ZM8.55556 23.2H11.0764C13.1134 23.2 14.603 22.64 15.5451 21.52C16.4873 20.4 16.9583 18.8267 16.9583 16.8V11.2C16.9583 9.14667 16.4873 7.57333 15.5451 6.48C14.603 5.36 13.1134 4.8 11.0764 4.8H8.55556V23.2Z" fill="white"/>
</svg>
