<svg width="474" height="474" viewBox="0 0 474 474" fill="none" xmlns="http://www.w3.org/2000/svg">
<g clip-path="url(#clip0_128_13)">
<path d="M444 0H30C13.4315 0 0 13.4315 0 30V444C0 460.569 13.4315 474 30 474H444C460.569 474 474 460.569 474 444V30C474 13.4315 460.569 0 444 0Z" fill="black"/>
<path d="M273.271 391.86C289.551 413.85 322.721 411.48 344.781 395.28C351.451 390.38 356.601 384.1 362.101 377.77C365.821 377.9 369.341 380.09 371.981 383.29C367.821 391.41 362.481 398.01 355.641 404.41C332.901 425.67 303.071 432.44 272.311 428.53C238.401 424.22 210.691 402.39 198.861 370.22C182.751 326.41 198.901 274.95 240.811 252.67C272.431 235.86 314.441 234.6 344.631 255.57C364.511 269.37 373.821 291.85 359.091 311.06C352.601 319.52 341.841 324.67 330.111 323.91C314.271 323.24 300.691 311.77 299.111 296.22C297.541 280.8 304.071 267.8 318.971 260.71C298.051 250.51 274.401 262.07 267.361 283.28C264.071 293.19 262.481 303.25 262.571 313.92L262.961 359.99C263.061 371.44 266.521 382.75 273.271 391.87V391.86Z" fill="white"/>
<path d="M184.91 248.87C188.8 247.87 192.44 247.65 196.57 248.15C198.13 248.34 199.13 251.57 198.54 253.12L170.12 327.55L133.99 423.95C132.43 426.21 130.32 427.18 127.67 427.17L79.3804 426.93L48.9004 340.85L18.3504 253.48C17.5104 251.09 19.1704 247.97 21.8104 247.97L81.7604 247.9C84.1204 247.9 86.8104 249.72 87.5304 251.96L101.15 294.38L121.24 354.16C124.92 365.1 127.71 374.93 132.88 386.44L144.55 355.44L165.79 298.92L184.92 248.87H184.91Z" fill="white"/>
<path d="M393.45 427.1C390.61 427.1 388.45 424.51 388.45 422.32L388.56 351.71C388.58 339.35 396.39 330.39 407.58 326.63L445.85 313.79C447.35 313.29 450.15 313.38 451.34 314.08C452.89 314.99 453.95 317.63 453.95 319.92V421.68C453.96 424.56 451.9 427.09 448.96 427.09H393.45V427.1Z" fill="white"/>
<path d="M420.701 226.79C440.13 226.79 455.881 211.039 455.881 191.61C455.881 172.181 440.13 156.43 420.701 156.43C401.271 156.43 385.521 172.181 385.521 191.61C385.521 211.039 401.271 226.79 420.701 226.79Z" fill="white"/>
<path d="M454.18 271.08C454.34 289.45 440.41 301.21 424.09 306.2C414.79 309.04 405.39 311.47 396.01 313.62C390.26 314.93 388.24 309.25 388.26 305L388.43 253.07C388.44 249.9 392.03 247.91 394.97 247.9L447.96 247.73C450.8 247.73 454.01 250.1 454.03 252.91L454.19 271.08H454.18Z" fill="white"/>
</g>
<defs>
<clipPath id="clip0_128_13">
<rect width="474" height="474" fill="white"/>
</clipPath>
</defs>
</svg>
